<svg width="21" height="20" xmlns="http://www.w3.org/2000/svg"><g clip-path="url(#clip0_1_11494)"><path d="M15.297 5a5 5 0 00-10 0h-5v12.5a2.5 2.5 0 002.5 2.5h15a2.5 2.5 0 002.5-2.5V5h-5zm-5-3.333A3.333 3.333 0 0113.63 5H6.964a3.333 3.333 0 013.333-3.333zM18.63 17.5a.833.833 0 01-.833.833h-15a.834.834 0 01-.833-.833V6.667h3.333v1.666h1.667V6.667h6.666v1.666h1.667V6.667h3.333V17.5z"/></g><defs><clipPath id="clip0_1_11494"><path fill="#fff" transform="translate(.297)" d="M0 0h20v20H0z"/></clipPath></defs></svg>