<svg width="21" height="20" xmlns="http://www.w3.org/2000/svg"><path d="M9.86 4.478l.64.856.64-.855.002-.003.007-.01.032-.04a12.689 12.689 0 01.546-.665c.363-.413.746-.79 1.007-.945a4.303 4.303 0 012.107-.602A4.604 4.604 0 0117.99 3.67a4.494 4.494 0 011.207 3.236v.03c0 1.118-.462 2.347-1.242 3.61-.775 1.254-1.825 2.478-2.907 3.568a37.187 37.187 0 01-4.548 3.862 37.317 37.317 0 01-4.548-3.863C4.87 13.023 3.82 11.8 3.045 10.545c-.78-1.262-1.241-2.491-1.241-3.609v-.03A4.495 4.495 0 013.01 3.67a4.604 4.604 0 013.15-1.456c.743.016 1.47.223 2.107.602.261.155.644.532 1.007.945a13.983 13.983 0 01.546.664l.032.041.007.01.002.002z"/></svg>