<svg width="171" height="76" fill="none" xmlns="http://www.w3.org/2000/svg"><g clip-path="url(#clip0_220_78)"><g clip-path="url(#clip1_220_78)" fill="#202223"><path d="M11.745 34.08L.46 27.565V14.54l11.284-6.516 11.284 6.516v13.026L11.745 34.08zm-8.848-7.92l8.848 5.107 8.843-5.106V15.947l-8.843-5.106-8.848 5.107V26.16zm29.48 42.772l-11.283-6.515V49.39l11.283-6.515 11.284 6.515v13.027l-11.284 6.515zm-8.847-7.92l8.847 5.107 8.844-5.107V50.8l-8.843-5.106L23.53 50.8v10.213z"/><path d="M12.96 32.719h-2.437V44.34h2.437V32.719zM41.829 51.21l-10.673-6.165V32.036L59.325 15l1.26 2.085L33.598 33.41v10.23l9.45 5.458-1.218 2.111z"/><path d="M68.09 22.269c-2.974 0-5.77-1.157-7.877-3.26a11.062 11.062 0 01-3.26-7.876 11.07 11.07 0 013.26-7.877c4.344-4.34 11.405-4.344 15.749 0 4.343 4.344 4.343 11.41 0 15.749a11.063 11.063 0 01-7.877 3.26m0-19.833c-2.228 0-4.456.85-6.151 2.545a8.644 8.644 0 00-2.549 6.151 8.64 8.64 0 002.549 6.151 8.644 8.644 0 006.151 2.55 8.644 8.644 0 006.151-2.55c3.39-3.39 3.39-8.912 0-12.302a8.674 8.674 0 00-6.15-2.545zm1.021 48.074h-2.462V45.93H61.65v4.577h-2.462V39.422h2.462v4.291h4.994v-4.291h2.462v11.084zm13.788-11.084l-4.781 13.247c-.356.958-.876 1.622-1.556 1.986-.68.364-1.496.546-2.437.546a6.06 6.06 0 01-1.044-.095 6.47 6.47 0 01-1.166-.321l.511-2.259c.343.126.655.217.94.27.287.051.538.077.764.077.737 0 1.24-.334 1.508-.997l.438-1.07-4.235-11.38h2.558l3.043 8.384 2.817-8.384h2.64v-.004zm13.373 5.635h-2.211v-3.424h-2.094v6.658h2.462v2.21h-7.373v-2.21H89.5v-6.658h-2.116v3.424h-2.189v-5.635h11.072v5.635zm2.811-5.637h2.462v.998c.469-.42.941-.737 1.422-.945a4.107 4.107 0 011.647-.317c.716 0 1.375.143 1.986.434a4.64 4.64 0 011.569 1.2c.438.512.78 1.128 1.036 1.843.256.715.382 1.495.382 2.336 0 .841-.126 1.63-.382 2.341-.256.711-.598 1.327-1.036 1.838-.438.512-.958.91-1.569 1.197a4.63 4.63 0 01-1.986.429c-.619 0-1.166-.113-1.647-.33a5.837 5.837 0 01-1.422-.958v5.45h-2.462v-15.52.005zm2.462 8.12a2.98 2.98 0 001.123.759 3.61 3.61 0 001.314.268c.927 0 1.682-.33 2.267-.988.581-.659.875-1.526.875-2.597 0-1.07-.29-1.942-.875-2.61-.581-.667-1.34-1-2.267-1a3.77 3.77 0 00-1.314.255c-.455.17-.832.42-1.123.746v5.171-.004zm10.827-8.118h2.462v7.62l4.366-7.62h3.09v11.084h-2.462v-8.063l-4.603 8.063h-2.853V39.422zM71.139 69.897v6.004h-2.211v-3.793h-9.74V61.023h2.462v8.87h4.994v-8.87h2.462v8.87h2.033v.004zm1.345-8.874h2.463v7.621l4.365-7.62h3.09v11.084H79.94v-8.063l-4.603 8.063h-2.853V61.023zm24.074 5.552c0 .862-.138 1.647-.411 2.354a5.197 5.197 0 01-1.18 1.825 5.397 5.397 0 01-1.837 1.196c-.716.286-1.509.43-2.389.43-.88 0-1.651-.144-2.367-.43a5.398 5.398 0 01-1.838-1.196 5.197 5.197 0 01-1.179-1.825c-.273-.707-.412-1.492-.412-2.354 0-.863.139-1.621.412-2.337a5.324 5.324 0 011.18-1.855 5.224 5.224 0 011.837-1.2c.716-.283 1.504-.421 2.367-.421s1.678.138 2.389.42c.715.282 1.326.68 1.838 1.201.511.52.901 1.136 1.179 1.855a6.52 6.52 0 01.411 2.337zm-2.462.004c0-.498-.078-.975-.23-1.422a3.274 3.274 0 00-.667-1.148 3.196 3.196 0 00-1.062-.755 3.367 3.367 0 00-1.392-.282c-.511 0-.988.096-1.4.282a3.124 3.124 0 00-1.044.755 3.324 3.324 0 00-.66 1.148 4.31 4.31 0 00-.23 1.422c0 .499.079 1.002.23 1.43a3.5 3.5 0 00.66 1.132 2.89 2.89 0 001.044.754c.412.178.876.27 1.4.27a3.46 3.46 0 001.392-.27 3 3 0 001.062-.754c.29-.325.516-.702.668-1.131.156-.43.23-.906.23-1.43zm14.897-5.559v11.084h-2.463v-8.869h-4.187v5.584c0 .641-.096 1.192-.286 1.647-.191.455-.442.823-.755 1.1a2.92 2.92 0 01-1.105.612c-.425.13-.88.195-1.361.195-.668 0-1.153-.1-1.461-.299l.308-2.115c.117.069.247.117.386.151.138.035.32.052.541.052.85 0 1.275-.446 1.275-1.335v-7.811h9.108v.004zm14.159 5.555c0 .862-.138 1.647-.412 2.354a5.189 5.189 0 01-1.179 1.825 5.386 5.386 0 01-1.838 1.196c-.715.286-1.508.43-2.388.43-.88 0-1.652-.144-2.367-.43a5.395 5.395 0 01-1.838-1.196 5.189 5.189 0 01-1.179-1.825c-.273-.707-.412-1.492-.412-2.354 0-.863.139-1.621.412-2.337a5.315 5.315 0 011.179-1.855 5.221 5.221 0 011.838-1.2c.715-.283 1.504-.421 2.367-.421.862 0 1.677.138 2.388.42.716.282 1.327.68 1.838 1.201.512.52.902 1.136 1.179 1.855.274.72.412 1.496.412 2.337zm-2.462.004c0-.498-.078-.975-.23-1.422a3.277 3.277 0 00-.667-1.148 3.202 3.202 0 00-1.062-.755 3.368 3.368 0 00-1.392-.282c-.511 0-.988.096-1.4.282a3.122 3.122 0 00-1.045.755 3.324 3.324 0 00-.659 1.148 4.312 4.312 0 00-.229 1.422c0 .499.078 1.002.229 1.43a3.5 3.5 0 00.659 1.132c.286.325.633.577 1.045.754.412.178.876.27 1.4.27a3.46 3.46 0 001.392-.27 3.01 3.01 0 001.062-.754c.29-.325.516-.702.667-1.131.156-.43.23-.906.23-1.43zm4.974-5.559h10.499v2.068h-8.037V72.1h-2.462V61.016v.004zm13.511 11.014h-2.995V69.04h2.995v2.995zm3.989-11.082h2.462v.997c.468-.42.941-.737 1.422-.945.481-.208 1.028-.316 1.647-.316.716 0 1.375.143 1.986.433a4.65 4.65 0 011.569 1.2c.438.512.78 1.128 1.036 1.843a6.91 6.91 0 01.382 2.337c0 .84-.126 1.63-.382 2.34-.256.711-.598 1.327-1.036 1.839a4.62 4.62 0 01-1.569 1.196 4.631 4.631 0 01-1.986.43 3.975 3.975 0 01-1.647-.33 5.82 5.82 0 01-1.422-.958v5.453h-2.462V60.95zm2.462 8.12a2.92 2.92 0 001.123.754 3.61 3.61 0 001.314.268c.927 0 1.681-.33 2.267-.988.581-.659.875-1.526.875-2.597 0-1.07-.29-1.942-.875-2.61-.581-.667-1.34-1-2.267-1a3.77 3.77 0 00-1.314.255c-.455.17-.832.42-1.123.746v5.171zm15.784 7.396v-4.426c-1.079.17-2.063.057-2.939-.35-.88-.404-1.578-1.063-2.093-1.973-.516-.91-.776-2.05-.776-3.42s.26-2.502.776-3.42c.515-.92 1.213-1.574 2.093-1.977.88-.4 1.86-.516 2.939-.343v-3.325h2.198v3.325c1.08-.169 2.064-.056 2.939.343.88.398 1.578 1.057 2.094 1.976.516.92.776 2.055.776 3.42 0 1.366-.26 2.51-.776 3.42-.516.911-1.214 1.57-2.094 1.973-.88.403-1.859.52-2.939.351v4.426h-2.198zm0-6.64v-7.023c-.555-.096-1.04-.083-1.452.047a2.164 2.164 0 00-1.027.66c-.269.311-.473.706-.611 1.178-.139.477-.204 1.015-.204 1.617 0 .603.069 1.15.212 1.622.139.472.351.867.633 1.179a2.23 2.23 0 001.036.663c.412.126.884.147 1.418.056h-.005zm2.198 0c.533.09 1.006.073 1.418-.053a2.197 2.197 0 001.031-.646c.278-.307.486-.698.633-1.174a5.726 5.726 0 00.217-1.648c0-.624-.069-1.17-.204-1.643-.138-.472-.342-.862-.611-1.174a2.062 2.062 0 00-1.027-.646c-.416-.122-.898-.13-1.453-.035v7.023l-.004-.005z"/></g></g><defs><clipPath id="clip0_220_78"><path fill="#fff" d="M0 0h171v76H0z"/></clipPath><clipPath id="clip1_220_78"><path fill="#fff" transform="translate(.453)" d="M0 0h168.979v76.472H0z"/></clipPath></defs></svg>