<?xml version="1.0" encoding="utf-8"?><svg viewBox="0 0 24 24" xmlns="http://www.w3.org/2000/svg" xmlns:xlink="http://www.w3.org/1999/xlink"><style>:root>svg{display:none}:root>svg:target{display:block}</style><svg fill="none" viewBox="0 0 14 14" id="arrow" xmlns="http://www.w3.org/2000/svg"><path d="M7.168 2.722l4.991 4.99m0 0l-4.99 4.992m4.99-4.991H1.96" stroke="#fff" stroke-width="1.2"/></svg><svg viewBox="0 0 21 20" id="cart" xmlns="http://www.w3.org/2000/svg"><g clip-path="url(#ba)"><path d="M15.297 5a5 5 0 00-10 0h-5v12.5a2.5 2.5 0 002.5 2.5h15a2.5 2.5 0 002.5-2.5V5h-5zm-5-3.333A3.333 3.333 0 0113.63 5H6.964a3.333 3.333 0 013.333-3.333zM18.63 17.5a.833.833 0 01-.833.833h-15a.834.834 0 01-.833-.833V6.667h3.333v1.666h1.667V6.667h6.666v1.666h1.667V6.667h3.333V17.5z"/></g><defs><clipPath id="ba"><path fill="#fff" transform="translate(.297)" d="M0 0h20v20H0z"/></clipPath></defs></svg><svg fill="none" viewBox="0 0 14 14" id="close" xmlns="http://www.w3.org/2000/svg"><path fill="#202223" d="M1.398 2.391L2.813.977l9.9 9.9-1.415 1.414z"/><path d="M11.3 1l1.415 1.414-9.9 9.9-1.414-1.415L11.301 1z" fill="#202223"/></svg><svg viewBox="0 0 21 20" id="favs" xmlns="http://www.w3.org/2000/svg"><path d="M9.86 4.478l.64.856.64-.855.002-.003.007-.01.032-.04a12.689 12.689 0 01.546-.665c.363-.413.746-.79 1.007-.945a4.303 4.303 0 012.107-.602A4.604 4.604 0 0117.99 3.67a4.494 4.494 0 011.207 3.236v.03c0 1.118-.462 2.347-1.242 3.61-.775 1.254-1.825 2.478-2.907 3.568a37.187 37.187 0 01-4.548 3.862 37.317 37.317 0 01-4.548-3.863C4.87 13.023 3.82 11.8 3.045 10.545c-.78-1.262-1.241-2.491-1.241-3.609v-.03A4.495 4.495 0 013.01 3.67a4.604 4.604 0 013.15-1.456c.743.016 1.47.223 2.107.602.261.155.644.532 1.007.945a13.983 13.983 0 01.546.664l.032.041.007.01.002.002z"/></svg><svg fill="none" viewBox="0 0 18 18" id="filter" xmlns="http://www.w3.org/2000/svg"><path d="M1.006 4.023h3.018v1.695H1.006V4.023zm7.543 0h9.053v2.012H8.549V4.023zm6.039 9.051h3.018v1.694h-3.018v-1.694zm-13.582 0h9.053v2.012H1.006v-2.012z" fill="#202223"/><circle cx="6.288" cy="4.776" r="2.925" stroke="#202223" stroke-width="1.694"/><circle cx="12.321" cy="13.831" r="2.925" stroke="#202223" stroke-width="1.694"/></svg><svg fill="none" viewBox="0 0 24 24" id="inst" xmlns="http://www.w3.org/2000/svg"><g clip-path="url(#fa)"><path d="M12 7.5a4.5 4.5 0 100 9 4.5 4.5 0 000-9zm0 7.5a3 3 0 113-3 3.01 3.01 0 01-3 3zm4.125-12.375h-8.25a5.25 5.25 0 00-5.25 5.25v8.25a5.25 5.25 0 005.25 5.25h8.25a5.25 5.25 0 005.25-5.25v-8.25a5.25 5.25 0 00-5.25-5.25zm3.75 13.5a3.75 3.75 0 01-3.75 3.75h-8.25a3.75 3.75 0 01-3.75-3.75v-8.25a3.75 3.75 0 013.75-3.75h8.25a3.75 3.75 0 013.75 3.75v8.25zm-1.875-9a1.125 1.125 0 11-2.25 0 1.125 1.125 0 012.25 0z" fill="#000"/></g><defs><clipPath id="fa"><path fill="#fff" d="M0 0h24v24H0z"/></clipPath></defs></svg><svg fill="none" viewBox="0 0 20 20" id="reply" xmlns="http://www.w3.org/2000/svg"><path d="M9.659 7.122C4.585 7.629 3.106 13.252 3 16c2.283-2.79 5.39-3.7 6.659-3.805V16l7.292-6.341L9.66 3v4.122z" stroke="#202223" stroke-width="1.5"/></svg><svg viewBox="0 0 21 20" id="search" xmlns="http://www.w3.org/2000/svg"><g clip-path="url(#ha)"><path fill-rule="evenodd" clip-rule="evenodd" d="M14.442 7.872a6.272 6.272 0 11-12.545 0 6.272 6.272 0 0112.545 0zm-1.585 6.325a7.872 7.872 0 111.184-1.08l5.405 5.267-1.116 1.145-5.473-5.332z"/></g><defs><clipPath id="ha"><path fill="#fff" transform="translate(.297)" d="M0 0h20v20H0z"/></clipPath></defs></svg><svg fill="none" viewBox="0 0 24 24" id="super-like" xmlns="http://www.w3.org/2000/svg"><path d="M2.263 19.048C1.4 17.805.715 16.469.375 14.985c-1.059-4.622.123-8.6 3.556-11.86C5.817 1.334 8.123.364 10.707.063c.064-.007.142.02.18-.063h2.065c.43.13.883.118 1.32.222 4.987 1.154 8.178 4.201 9.39 9.171.823 3.379.118 6.55-1.825 9.438-.038.06-.073.119-.11.174a1.98 1.98 0 00-.136.151 12.01 12.01 0 01-4.77 3.813c-.572.256-1.172.428-1.758.642-.952.24-1.93.37-2.911.388a12.03 12.03 0 01-3.12-.366.613.613 0 00-.087-.012c-.082-.031-.161-.068-.245-.092a11.918 11.918 0 01-5.034-2.9c-.511-.49-.953-1.038-1.403-1.581zm9.735-15.74c-4.817 0-8.676 3.83-8.706 8.615-.03 4.957 3.859 8.757 8.656 8.78 4.884.019 8.663-3.844 8.723-8.6a8.683 8.683 0 00-2.498-6.213 8.668 8.668 0 00-6.175-2.582z" fill="#BEB0D4"/><path d="M11.998 3.313a8.664 8.664 0 018.047 5.437 8.683 8.683 0 01.626 3.358c-.06 4.755-3.839 8.618-8.722 8.6-4.798-.019-8.687-3.821-8.657-8.778.03-4.788 3.89-8.617 8.707-8.617zM8.055 17.288c-.01.448.33.66.705.465.95-.491 1.9-.984 2.839-1.497.284-.155.52-.147.798.004.931.505 1.873.99 2.81 1.486.19.102.372.123.548-.017.16-.129.201-.292.165-.499-.182-1.014-.344-2.032-.532-3.045-.066-.358-.01-.627.275-.892.741-.69 1.448-1.414 2.17-2.123.16-.157.304-.317.22-.565-.081-.237-.271-.304-.503-.337-1.019-.144-2.034-.316-3.056-.442-.35-.043-.539-.195-.683-.501-.433-.914-.887-1.815-1.334-2.722-.107-.219-.216-.423-.508-.418-.276.005-.38.202-.482.41-.453.935-.916 1.865-1.37 2.803-.105.216-.24.371-.495.408-1.058.15-2.114.314-3.173.46-.24.034-.442.08-.532.336-.095.268.07.424.236.585.747.727 1.492 1.455 2.237 2.183.16.155.289.318.241.566-.071.366-.132.734-.194 1.101-.132.764-.26 1.53-.382 2.25z" fill="#BEB0D4"/><path d="M8.054 17.282c.121-.722.25-1.486.38-2.248.061-.368.122-.736.193-1.102.048-.248-.08-.41-.24-.566a1926.79 1926.79 0 01-2.237-2.183c-.165-.16-.33-.317-.237-.584.09-.256.296-.303.532-.336 1.059-.146 2.115-.31 3.173-.46.256-.037.39-.192.496-.408.453-.937.914-1.87 1.37-2.805.101-.208.205-.405.481-.41.292-.006.4.199.507.418.444.908.902 1.81 1.334 2.721.145.307.334.458.684.502 1.022.126 2.037.296 3.056.442.231.032.421.097.503.336.084.249-.06.409-.22.565-.722.71-1.43 1.434-2.17 2.123-.285.266-.341.533-.276.893.187 1.013.35 2.03.532 3.045.037.207-.004.37-.165.498-.177.14-.357.118-.548.018-.936-.497-1.878-.982-2.81-1.487-.278-.15-.513-.158-.798-.003-.938.512-1.887 1.006-2.838 1.497-.372.194-.713-.017-.702-.466z" fill="#FFFEFD"/></svg><svg fill="none" viewBox="0 0 24 24" id="tg" xmlns="http://www.w3.org/2000/svg"><path d="M21.687 2.971a1.51 1.51 0 00-1.528-.253L2.852 9.515a1.481 1.481 0 00-.947 1.528 1.5 1.5 0 001.2 1.34l4.397.873v5.493a1.5 1.5 0 002.56 1.06l2.437-2.428 3.685 3.243a1.5 1.5 0 002.456-.787l3.525-15.394a1.5 1.5 0 00-.478-1.472zM8.074 11.84l-4.669-.928 13.088-5.147-8.419 6.075zm.928 6.91v-4.444l2.363 2.08-2.363 2.363zm8.175.75l-7.725-6.798L20.58 4.668l-3.403 14.831z" fill="#000"/></svg><svg viewBox="0 0 21 20" id="user" xmlns="http://www.w3.org/2000/svg"><g clip-path="url(#ka)"><path d="M10.297 10a5 5 0 100-10 5 5 0 000 10zm0-8.333a3.334 3.334 0 110 6.667 3.334 3.334 0 010-6.667zm0 10.001a7.508 7.508 0 00-7.5 7.5.833.833 0 001.667 0 5.833 5.833 0 1111.666 0 .833.833 0 001.667 0 7.508 7.508 0 00-7.5-7.5z"/></g><defs><clipPath id="ka"><path fill="#fff" transform="translate(.297)" d="M0 0h20v20H0z"/></clipPath></defs></svg><svg fill="none" viewBox="0 0 24 24" id="youtube" xmlns="http://www.w3.org/2000/svg"><g clip-path="url(#la)"><path d="M15.412 11.373l-4.5-3a.778.778 0 00-.768-.037.75.75 0 00-.394.666v6a.75.75 0 00.394.665c.11.056.232.085.356.085a.788.788 0 00.412-.122l4.5-3a.75.75 0 000-1.257zm-4.162 2.232v-3.207l2.4 1.604-2.4 1.603zm10.716-7.06a2.202 2.202 0 00-1.36-1.528C17.4 3.78 12.281 3.79 12 3.79c-.281 0-5.4-.01-8.606 1.228a2.203 2.203 0 00-1.36 1.528c-.243.928-.534 2.635-.534 5.457 0 2.821.29 4.528.534 5.456a2.204 2.204 0 001.36 1.528c3.075 1.19 7.893 1.228 8.54 1.228h.132c.646 0 5.465-.037 8.54-1.228a2.203 2.203 0 001.36-1.528c.243-.928.534-2.635.534-5.456 0-2.822-.29-4.529-.534-5.457zm-1.454 10.538a.731.731 0 01-.44.506C17.1 18.733 12.056 18.714 12 18.714h-.01c-.046 0-5.09.019-8.062-1.125a.731.731 0 01-.44-.506C3.262 16.23 3 14.664 3 12.002c0-2.663.263-4.229.487-5.082a.731.731 0 01.441-.506c2.86-1.097 7.66-1.125 8.053-1.125H12c.056 0 5.1-.019 8.072 1.125a.732.732 0 01.44.506c.226.853.488 2.42.488 5.082s-.262 4.228-.488 5.08z" fill="#000"/></g><defs><clipPath id="la"><path fill="#fff" d="M0 0h24v24H0z"/></clipPath></defs></svg></svg>