<svg width="24" height="24" fill="none" xmlns="http://www.w3.org/2000/svg"><path d="M2.263 19.048C1.4 17.805.715 16.469.375 14.985c-1.059-4.622.123-8.6 3.556-11.86C5.817 1.334 8.123.364 10.707.063c.064-.007.142.02.18-.063h2.065c.43.13.883.118 1.32.222 4.987 1.154 8.178 4.201 9.39 9.171.823 3.379.118 6.55-1.825 9.438-.038.06-.073.119-.11.174a1.98 1.98 0 00-.136.151 12.01 12.01 0 01-4.77 3.813c-.572.256-1.172.428-1.758.642-.952.24-1.93.37-2.911.388a12.03 12.03 0 01-3.12-.366.613.613 0 00-.087-.012c-.082-.031-.161-.068-.245-.092a11.918 11.918 0 01-5.034-2.9c-.511-.49-.953-1.038-1.403-1.581zm9.735-15.74c-4.817 0-8.676 3.83-8.706 8.615-.03 4.957 3.859 8.757 8.656 8.78 4.884.019 8.663-3.844 8.723-8.6a8.683 8.683 0 00-2.498-6.213 8.668 8.668 0 00-6.175-2.582z" fill="#BEB0D4"/><path d="M11.998 3.313a8.664 8.664 0 018.047 5.437 8.683 8.683 0 01.626 3.358c-.06 4.755-3.839 8.618-8.722 8.6-4.798-.019-8.687-3.821-8.657-8.778.03-4.788 3.89-8.617 8.707-8.617zM8.055 17.288c-.01.448.33.66.705.465.95-.491 1.9-.984 2.839-1.497.284-.155.52-.147.798.004.931.505 1.873.99 2.81 1.486.19.102.372.123.548-.017.16-.129.201-.292.165-.499-.182-1.014-.344-2.032-.532-3.045-.066-.358-.01-.627.275-.892.741-.69 1.448-1.414 2.17-2.123.16-.157.304-.317.22-.565-.081-.237-.271-.304-.503-.337-1.019-.144-2.034-.316-3.056-.442-.35-.043-.539-.195-.683-.501-.433-.914-.887-1.815-1.334-2.722-.107-.219-.216-.423-.508-.418-.276.005-.38.202-.482.41-.453.935-.916 1.865-1.37 2.803-.105.216-.24.371-.495.408-1.058.15-2.114.314-3.173.46-.24.034-.442.08-.532.336-.095.268.07.424.236.585.747.727 1.492 1.455 2.237 2.183.16.155.289.318.241.566-.071.366-.132.734-.194 1.101-.132.764-.26 1.53-.382 2.25z" fill="#BEB0D4"/><path d="M8.054 17.282c.121-.722.25-1.486.38-2.248.061-.368.122-.736.193-1.102.048-.248-.08-.41-.24-.566a1926.79 1926.79 0 01-2.237-2.183c-.165-.16-.33-.317-.237-.584.09-.256.296-.303.532-.336 1.059-.146 2.115-.31 3.173-.46.256-.037.39-.192.496-.408.453-.937.914-1.87 1.37-2.805.101-.208.205-.405.481-.41.292-.006.4.199.507.418.444.908.902 1.81 1.334 2.721.145.307.334.458.684.502 1.022.126 2.037.296 3.056.442.231.032.421.097.503.336.084.249-.06.409-.22.565-.722.71-1.43 1.434-2.17 2.123-.285.266-.341.533-.276.893.187 1.013.35 2.03.532 3.045.037.207-.004.37-.165.498-.177.14-.357.118-.548.018-.936-.497-1.878-.982-2.81-1.487-.278-.15-.513-.158-.798-.003-.938.512-1.887 1.006-2.838 1.497-.372.194-.713-.017-.702-.466z" fill="#FFFEFD"/></svg>